<svg xmlns="http://www.w3.org/2000/svg" viewBox="0 0 512 512">
  <defs>
    <linearGradient id="bg" x1="25%" y1="0%" x2="75%" y2="100%">
      <stop offset="0%" stop-color="#14263A"/>
      <stop offset="100%" stop-color="#070C13"/>
    </linearGradient>
    <radialGradient id="bgGlow" cx="30%" cy="24%" r="54%">
      <stop offset="0%" stop-color="#1C3650" stop-opacity="0.85"/>
      <stop offset="100%" stop-color="#070C13" stop-opacity="0"/>
    </radialGradient>
    <!-- Or : lumineux en haut, ambré profond en bas -->
    <linearGradient id="gold" x1="12%" y1="0%" x2="88%" y2="100%">
      <stop offset="0%"   stop-color="#FFF2BC"/>
      <stop offset="20%"  stop-color="#F2C020"/>
      <stop offset="52%"  stop-color="#CA8408"/>
      <stop offset="86%"  stop-color="#7E4C04"/>
      <stop offset="100%" stop-color="#5C3402"/>
    </linearGradient>
    <!-- Reflet sur la face courbe du D -->
    <radialGradient id="sheen" cx="72%" cy="40%" r="32%">
      <stop offset="0%" stop-color="#FFFBDE" stop-opacity="0.26"/>
      <stop offset="100%" stop-color="#FFFBDE" stop-opacity="0"/>
    </radialGradient>
    <filter id="shadow" x="-15%" y="-10%" width="130%" height="126%">
      <feDropShadow dx="2" dy="12" stdDeviation="18" flood-color="#000208" flood-opacity="0.65"/>
    </filter>
    <!-- Masque : guillemets ouvrants typographiques découpés dans le D -->
    <mask id="qMask">
      <rect width="512" height="512" fill="white"/>
      <text
        x="242" y="325"
        text-anchor="middle"
        font-family="Georgia, 'Times New Roman', serif"
        font-size="170"
        font-weight="bold"
        fill="black"
        letter-spacing="4">&#x201C;</text>
    </mask>
  </defs>

  <!-- Fond -->
  <rect width="512" height="512" rx="114" fill="url(#bg)"/>
  <rect width="512" height="512" rx="114" fill="url(#bgGlow)"/>

  <!-- D doré avec guillemets typographiques découpés -->
  <path
    fill="url(#gold)"
    filter="url(#shadow)"
    mask="url(#qMask)"
    d="M 118,72 L 226,72 C 470,72 470,440 226,440 L 118,440 Z"/>

  <!-- Reflet métallique sur la courbe -->
  <path
    fill="url(#sheen)"
    d="M 226,72 C 470,72 470,440 226,440 L 240,440 C 484,440 484,72 240,72 Z"/>

  <!-- Filet lumineux sur le montant gauche -->
  <line x1="118" y1="72" x2="118" y2="440"
    stroke="rgba(255,244,160,0.13)" stroke-width="4" stroke-linecap="round"/>
</svg>
