<svg xmlns="http://www.w3.org/2000/svg" viewBox="22 48 136 96">
  <defs>
    <linearGradient id="mg" x1="20%" y1="0%" x2="80%" y2="100%">
      <stop offset="0%" stop-color="#F2DC98"/>
      <stop offset="35%" stop-color="#C8860A"/>
      <stop offset="100%" stop-color="#6B4503"/>
    </linearGradient>
    <linearGradient id="shine" x1="0%" y1="0%" x2="0%" y2="100%">
      <stop offset="0%" stop-color="white" stop-opacity="0.22"/>
      <stop offset="100%" stop-color="white" stop-opacity="0"/>
    </linearGradient>
    <mask id="eyeMask">
      <rect width="180" height="180" fill="white"/>
      <ellipse cx="67.3" cy="81" rx="17.9" ry="10.5" fill="black" transform="rotate(-13 67.3 81)"/>
      <ellipse cx="112.7" cy="81" rx="17.9" ry="10.5" fill="black" transform="rotate(13 112.7 81)"/>
    </mask>
  </defs>
  <g transform="scale(0.352)">
    <path
      mask="url(#eyeMask)"
      fill="url(#mg)"
      d="M 86 262
         C 86 190, 138 158, 198 160
         C 226 161, 247 179, 254 198
         C 255 202, 255.5 206, 256 207
         C 256.5 206, 257 202, 258 198
         C 265 179, 286 161, 314 160
         C 374 158, 426 190, 426 262
         C 426 306, 401 330, 370 324
         C 341 318, 315 296, 295 275
         C 281 261, 271 253, 256 253
         C 241 253, 231 261, 217 275
         C 197 296, 171 318, 142 324
         C 111 330, 86 306, 86 262
         Z"/>
    <ellipse
      mask="url(#eyeMask)"
      cx="256" cy="188" rx="152" ry="40"
      fill="url(#shine)" opacity="0.9"/>
    <path d="M 256 358 L 264 372 L 256 386 L 248 372 Z" fill="#C8860A" opacity="0.55"/>
    <circle cx="256" cy="344" r="3" fill="#C8860A" opacity="0.4"/>
  </g>
</svg>
